<?xml version="1.0" encoding="utf-8"?>
<!-- Generator: Adobe Illustrator 25.2.3, SVG Export Plug-In . SVG Version: 6.00 Build 0)  -->
<svg version="1.1" id="Layer_1" xmlns="http://www.w3.org/2000/svg" xmlns:xlink="http://www.w3.org/1999/xlink" x="0px" y="0px"
	 viewBox="0 0 35.6 32.2" style="enable-background:new 0 0 35.6 32.2;" xml:space="preserve">
<g>
	<path d="M24.2,4.3h5.3v3.3l3.4,2.1c0.5,0.3,0.8,0.7,1.1,1.2c0.3,0.5,0.4,1,0.4,1.7v16.4c0,0.9-0.3,1.7-1,2.3c-0.6,0.6-1.4,1-2.3,1
		H5c-0.9,0-1.6-0.3-2.3-1c-0.6-0.6-1-1.4-1-2.3V12.5c0-0.6,0.1-1.2,0.4-1.7c0.3-0.5,0.7-0.9,1.1-1.2l3.4-2.1V4.3h5.3l6.1-3.8
		L24.2,4.3z M5,12.5l1.7,1v-2.1L5,12.5z M9.9,15.6l8.2,5.1l8.2-5.1v-8H9.9V15.6z M24.6,9.2v2.5h-13V9.2H24.6z M24.6,13.3v2.5h-13
		v-2.5H24.6z M29.5,13.5l1.7-1l-1.7-1.1V13.5z"/>
</g>
</svg>
